<svg xmlns="http://www.w3.org/2000/svg" viewBox="0 0 128 128" role="img" aria-label="Objects">
  <defs>
    <linearGradient id="bg" x1="18" y1="10" x2="110" y2="120" gradientUnits="userSpaceOnUse">
      <stop stop-color="#8f2638"/>
      <stop offset="1" stop-color="#521425"/>
    </linearGradient>
    <linearGradient id="note" x1="42" y1="35" x2="86" y2="94" gradientUnits="userSpaceOnUse">
      <stop stop-color="#ffe98a"/>
      <stop offset="1" stop-color="#ffc94f"/>
    </linearGradient>
    <filter id="shadow" x="-35%" y="-35%" width="170%" height="180%">
      <feDropShadow dx="0" dy="5" stdDeviation="5" flood-color="#260711" flood-opacity=".38"/>
    </filter>
  </defs>

  <rect x="4" y="4" width="120" height="120" rx="30" fill="url(#bg)"/>
  <path d="M22 34c10-14 26-21 43-21 18 0 35 8 45 22" fill="none" stroke="#c75868" stroke-width="3" stroke-linecap="round" opacity=".45"/>

  <g filter="url(#shadow)">
    <rect x="31" y="32" width="58" height="67" rx="9" fill="#eaa62c" transform="rotate(-12 60 65.5)"/>
    <rect x="39" y="29" width="58" height="67" rx="9" fill="#ffd866" transform="rotate(9 68 62.5)"/>
    <path d="M38 36a9 9 0 0 1 9-9h42a9 9 0 0 1 9 9v48L84 100H47a9 9 0 0 1-9-9V36Z" fill="url(#note)"/>
    <path d="M84 100V91a7 7 0 0 1 7-7h7L84 100Z" fill="#e9a92f"/>
  </g>

  <path d="M55 51c1-7 7-11 15-11 9 0 15 5 15 13 0 6-3 9-9 13-5 3-7 6-7 11" fill="none" stroke="#4a1823" stroke-width="9" stroke-linecap="round"/>
  <circle cx="68.5" cy="88" r="5" fill="#4a1823"/>
</svg>
